<?xml version="1.0" standalone="no"?>
<!DOCTYPE svg PUBLIC "-//W3C//DTD SVG 20010904//EN"
 "http://www.w3.org/TR/2001/REC-SVG-20010904/DTD/svg10.dtd">
<svg version="1.0" xmlns="http://www.w3.org/2000/svg"
 width="824.000000pt" height="824.000000pt" viewBox="0 0 824.000000 824.000000"
 preserveAspectRatio="xMidYMid meet">
<metadata>
Created by potrace 1.11, written by Peter Selinger 2001-2013
</metadata>
<g transform="translate(0.000000,824.000000) scale(0.100000,-0.100000)"
fill="#000000" stroke="none">
<path d="M2442 7633 c-181 -123 -407 -341 -528 -509 -64 -90 -129 -217 -162
-319 -31 -93 -59 -256 -48 -274 9 -14 120 54 227 140 119 95 306 291 372 391
65 98 125 215 161 316 44 122 86 312 69 312 -5 0 -46 -26 -91 -57z"/>
<path d="M5705 7648 c31 -198 115 -409 232 -586 61 -92 245 -289 353 -377 98
-80 233 -166 243 -156 15 15 -13 178 -48 283 -42 124 -107 242 -197 359 -84
109 -240 268 -348 356 -80 64 -222 163 -234 163 -4 0 -5 -19 -1 -42z"/>
<path d="M1524 7504 c-118 -211 -226 -540 -255 -774 -13 -110 -7 -252 16 -365
18 -85 64 -215 77 -215 14 0 98 154 147 270 123 293 171 568 142 820 -18 156
-61 330 -81 330 -5 0 -26 -30 -46 -66z"/>
<path d="M6646 7523 c-38 -119 -66 -302 -66 -438 0 -179 47 -404 127 -605 46
-117 119 -265 152 -309 l19 -25 21 41 c31 62 59 174 73 290 21 182 -14 410
-103 673 -56 166 -176 420 -199 420 -4 0 -15 -21 -24 -47z"/>
<path d="M3885 7044 c-723 -75 -1356 -459 -1767 -1070 -430 -640 -515 -1446
-231 -2184 163 -425 442 -797 792 -1061 768 -577 1836 -637 2653 -149 384 230
704 567 912 960 279 529 351 1133 202 1711 -177 692 -627 1247 -1261 1554
-225 109 -415 171 -666 216 -89 16 -168 21 -354 24 -132 2 -258 1 -280 -1z
m605 -213 c724 -128 1293 -557 1616 -1216 301 -616 299 -1310 -5 -1930 -333
-678 -970 -1133 -1712 -1225 -143 -17 -430 -15 -549 4 -767 126 -1394 579
-1715 1241 -145 298 -205 547 -212 886 -5 207 2 302 33 464 97 496 382 981
766 1301 306 256 705 432 1098 483 47 6 99 13 115 15 17 3 125 3 240 1 154 -3
241 -9 325 -24z"/>
<path d="M3205 5813 c-138 -21 -290 -79 -331 -125 -68 -75 -241 -528 -318
-830 -95 -371 -129 -817 -81 -1057 30 -151 102 -261 191 -292 59 -20 159 -16
227 11 78 30 206 117 347 236 299 253 402 287 870 287 499 -1 617 -41 951
-318 276 -230 462 -287 587 -179 148 126 180 494 91 1034 -25 153 -83 381
-139 555 -82 251 -194 518 -232 549 -39 33 -200 103 -275 121 -101 24 -198 18
-250 -17 -46 -30 -222 -88 -378 -123 -280 -63 -607 -54 -825 23 -97 35 -194
76 -232 100 -38 24 -137 36 -203 25z"/>
<path d="M966 6763 c-64 -197 -96 -357 -116 -592 -13 -149 -1 -302 35 -439 25
-94 88 -237 125 -282 26 -32 28 -28 79 125 125 377 133 755 23 1075 -35 100
-90 220 -102 220 -5 0 -24 -48 -44 -107z"/>
<path d="M7189 6803 c-152 -319 -179 -693 -80 -1087 32 -125 89 -286 101 -286
11 0 65 87 90 145 51 119 75 216 90 365 21 207 -25 536 -111 806 -22 68 -44
124 -49 124 -5 0 -23 -30 -41 -67z"/>
<path d="M2132 6660 c-235 -124 -488 -322 -620 -485 -108 -135 -222 -377 -222
-474 0 -12 3 -21 6 -21 24 0 233 113 330 179 299 201 482 420 597 716 44 113
51 145 35 145 -7 0 -64 -27 -126 -60z"/>
<path d="M5975 6693 c13 -55 78 -210 122 -291 119 -219 311 -416 563 -576 69
-44 268 -146 285 -146 11 0 -4 87 -27 155 -34 102 -115 246 -191 340 -131 164
-402 374 -634 493 -56 29 -107 52 -113 52 -8 0 -10 -9 -5 -27z"/>
<path d="M360 6063 c0 -112 28 -312 64 -458 71 -289 171 -489 320 -644 63 -64
144 -131 160 -131 12 0 5 224 -9 323 -43 286 -129 518 -264 715 -66 95 -178
222 -235 266 l-36 27 0 -98z"/>
<path d="M7775 6065 c-95 -96 -185 -214 -253 -336 -72 -127 -146 -368 -177
-576 -14 -99 -21 -323 -9 -323 17 0 99 68 162 135 120 125 193 252 261 448 73
212 124 493 119 657 l-3 95 -100 -100z"/>
<path d="M1449 5577 c-127 -160 -207 -287 -293 -469 -100 -209 -139 -365 -140
-553 -1 -116 18 -245 35 -245 14 0 151 170 214 265 71 108 174 314 209 417 37
108 63 245 71 369 9 129 -2 299 -18 299 -7 0 -42 -37 -78 -83z"/>
<path d="M6695 5573 c-15 -178 13 -408 71 -581 37 -111 133 -301 210 -417 68
-103 199 -265 213 -265 17 0 36 129 35 245 -2 241 -84 489 -259 775 -83 137
-232 330 -254 330 -5 0 -12 -39 -16 -87z"/>
<path d="M317 5153 c-10 -16 53 -287 98 -420 58 -174 165 -394 242 -498 75
-101 205 -223 292 -275 68 -41 91 -48 91 -30 0 38 -35 214 -60 303 -60 213
-151 412 -257 559 -66 92 -230 254 -324 321 -70 49 -75 52 -82 40z"/>
<path d="M7820 5096 c-234 -177 -395 -397 -505 -690 -60 -162 -130 -464 -111
-483 17 -17 146 68 245 162 131 124 231 279 324 505 85 208 174 570 139 570
-4 0 -45 -29 -92 -64z"/>
<path d="M1326 4562 c-10 -16 -45 -197 -62 -317 -23 -166 -23 -524 0 -655 21
-120 57 -240 101 -336 39 -84 110 -197 148 -232 l25 -24 10 34 c21 65 41 155
58 263 26 156 25 512 0 645 -37 191 -125 416 -224 572 -37 57 -46 66 -56 50z"/>
<path d="M6858 4512 c-97 -153 -182 -366 -219 -550 -49 -251 -27 -686 47 -915
l16 -49 25 24 c38 35 109 148 148 232 44 96 80 216 101 336 25 144 23 501 -5
685 -24 165 -52 287 -66 292 -6 1 -26 -23 -47 -55z"/>
<path d="M136 4168 c69 -132 221 -339 354 -480 165 -176 313 -279 494 -343 90
-32 236 -57 236 -41 0 17 -95 177 -154 259 -180 253 -371 422 -601 532 -99 47
-273 105 -317 105 l-29 0 17 -32z"/>
<path d="M7955 4166 c-314 -101 -557 -288 -782 -604 -58 -81 -153 -241 -153
-258 0 -15 133 7 225 37 109 36 248 114 348 196 166 136 375 392 496 606 l32
57 -33 -1 c-18 0 -78 -15 -133 -33z"/>
<path d="M1717 3333 c59 -382 265 -865 467 -1091 114 -127 289 -262 374 -287
19 -5 22 -3 22 22 0 72 -48 270 -106 434 -115 328 -291 596 -516 785 -91 76
-217 164 -236 164 -5 0 -7 -12 -5 -27z"/>
<path d="M6428 3307 c-174 -118 -348 -294 -456 -461 -72 -112 -168 -321 -222
-482 -48 -145 -90 -326 -90 -386 0 -26 3 -29 23 -23 42 12 177 100 245 160
185 163 323 376 445 685 91 231 173 561 140 560 -5 0 -43 -24 -85 -53z"/>
<path d="M580 3260 c0 -38 259 -343 396 -466 256 -230 460 -348 697 -404 106
-25 252 -37 261 -21 10 16 -98 169 -202 286 -214 242 -447 414 -687 509 -170
67 -465 128 -465 96z"/>
<path d="M7533 3259 c-92 -14 -284 -71 -391 -117 -172 -75 -330 -185 -503
-350 -151 -143 -350 -396 -333 -423 9 -16 156 -3 263 22 109 25 242 79 348
139 222 128 531 421 702 664 22 33 41 63 41 68 0 10 -43 9 -127 -3z"/>
<path d="M2625 2449 c25 -80 151 -285 242 -394 150 -180 295 -291 581 -443
132 -71 381 -189 417 -198 23 -6 25 -3 25 28 0 46 -26 141 -55 207 -60 130
-181 274 -332 394 -251 200 -641 398 -832 423 -53 7 -53 7 -46 -17z"/>
<path d="M5495 2450 c-158 -41 -374 -146 -575 -277 -321 -210 -496 -412 -555
-638 -17 -66 -20 -125 -6 -125 37 0 426 193 601 298 178 107 292 202 412 345
88 106 221 322 243 395 6 19 3 22 -22 21 -15 0 -59 -8 -98 -19z"/>
<path d="M1025 2354 c-82 -13 -263 -59 -274 -70 -11 -11 152 -108 302 -179
212 -100 471 -183 645 -206 126 -17 357 -6 455 20 102 28 187 63 187 78 0 18
-151 110 -294 178 -188 91 -397 158 -573 184 -97 15 -337 12 -448 -5z"/>
<path d="M6740 2356 c-183 -32 -401 -106 -580 -196 -127 -64 -260 -148 -260
-164 0 -14 104 -55 205 -82 57 -15 106 -19 265 -19 188 0 199 1 325 34 180 46
355 110 520 191 133 65 275 148 275 161 0 9 -137 48 -228 66 -107 20 -425 26
-522 9z"/>
<path d="M2205 1784 c-218 -32 -468 -119 -618 -216 l-49 -31 25 -13 c39 -21
229 -72 346 -93 180 -33 309 -45 476 -45 230 1 405 39 580 126 84 43 195 115
195 129 0 10 -96 45 -205 75 -182 49 -308 66 -520 69 -110 2 -213 1 -230 -1z"/>
<path d="M5650 1784 c-222 -26 -570 -113 -570 -143 0 -14 111 -86 195 -129
175 -87 350 -125 580 -126 257 0 523 40 753 113 100 32 101 33 45 69 -116 75
-330 159 -503 197 -73 16 -414 29 -500 19z"/>
<path d="M2990 1439 c-192 -34 -474 -164 -659 -306 l-44 -33 44 -19 c24 -11
91 -30 149 -42 94 -21 133 -23 365 -23 414 -1 645 47 837 173 80 52 186 158
172 171 -5 4 -47 24 -94 45 l-85 37 -315 4 c-178 1 -339 -1 -370 -7z"/>
<path d="M4620 1440 c-70 -6 -205 -53 -235 -81 -6 -6 20 -38 71 -87 129 -126
298 -198 555 -238 88 -14 174 -18 379 -18 238 0 276 2 370 23 58 12 125 31
149 42 l44 19 -44 33 c-195 146 -457 268 -649 303 -79 14 -494 17 -640 4z"/>
<path d="M3910 1186 c0 -24 -103 -110 -295 -246 -192 -136 -318 -248 -349
-308 -25 -49 -24 -101 3 -124 27 -21 52 -22 103 -4 173 62 420 305 507 499 40
88 63 197 41 197 -5 0 -10 -6 -10 -14z"/>
<path d="M4310 1185 c0 -35 25 -125 51 -182 98 -218 382 -482 546 -509 54 -8
87 19 85 69 -4 96 -97 189 -410 406 -140 98 -252 194 -252 217 0 8 -4 14 -10
14 -5 0 -10 -7 -10 -15z"/>
</g>
</svg>
