<svg xmlns="http://www.w3.org/2000/svg" xmlns:svg="http://www.w3.org/2000/svg" id="svg953" width="206.351" height="185.308" version="1.1" viewBox="0 0 54.597 49.029"><title id="title1626">Silica Urbe Icon</title><metadata id="metadata950"/><g id="layer1" transform="translate(-77.471347,-89.266384)"><g id="g1622" style="stroke:#fff;stroke-width:.79375;stroke-miterlimit:4;stroke-dasharray:none;stroke-opacity:1;paint-order:stroke markers fill;stroke-linecap:round;stroke-linejoin:round"><g style="fill:#000;fill-opacity:1;stroke:#fff;stroke-width:3.00000004;stroke-linecap:round;stroke-miterlimit:4;stroke-dasharray:none;stroke-opacity:1;paint-order:stroke markers fill;stroke-linejoin:round" id="g4865" transform="matrix(0.26458333,0,0,0.26458333,64.975318,20.285938)"><g style="fill:#000;fill-opacity:1;stroke:#fff;stroke-width:1.33640857;stroke-linecap:round;stroke-miterlimit:4;stroke-dasharray:none;stroke-opacity:1;paint-order:stroke markers fill;stroke-linejoin:round" id="g4829" transform="matrix(2.2109708,0,0,2.2791925,37.131096,240.32959)"><path style="fill:#000;fill-opacity:1;stroke:#fff;stroke-width:1.33640857;stroke-linecap:round;stroke-miterlimit:4;stroke-dasharray:none;stroke-opacity:1;paint-order:stroke markers fill;stroke-linejoin:round" id="path4725" d="m 48.54,79.356 c 0,0 -1.15,3.427 -8.086,4.166 -6.936,0.74 -9.895,-0.739 -9.895,-0.739 0,0 4.624,-3.605 9.063,-3.791 4.439,-0.185 8.918,0.364 8.918,0.364 z"/><path style="fill:#000;fill-opacity:1;stroke:#fff;stroke-width:1.33640857;stroke-linecap:round;stroke-miterlimit:4;stroke-dasharray:none;stroke-opacity:1;paint-order:stroke markers fill;stroke-linejoin:round" id="path4727" d="m 48.54,79.356 c 0,0 0.522,-3.585 -5.222,-7.542 -5.745,-3.956 -9.052,-4.066 -9.052,-4.066 0,0 1.898,4.885 6.521,7.745 3.778,2.337 7.753,3.863 7.753,3.863 z"/><path style="fill:#000;fill-opacity:1;stroke:#fff;stroke-width:1.33640857;stroke-linecap:round;stroke-miterlimit:4;stroke-dasharray:none;stroke-opacity:1;paint-order:stroke markers fill;stroke-linejoin:round" id="path4729" d="m 40.315,76.818 c 0,0 -3.537,-1.596 -8.878,-1.596 -5.341,0 -9.363,2.775 -9.363,2.775 0,0 3.953,1.594 9.641,1.594 5.687,0.001 8.6,-2.773 8.6,-2.773 z"/><path style="fill:#000;fill-opacity:1;stroke:#fff;stroke-width:1.33640857;stroke-linecap:round;stroke-miterlimit:4;stroke-dasharray:none;stroke-opacity:1;paint-order:stroke markers fill;stroke-linejoin:round" id="path4731" d="m 33.777,73.42 c 0,0 -0.287,-3.87 -2.836,-8.562 -2.549,-4.694 -6.907,-6.904 -6.907,-6.904 0,0 0.485,4.235 3.2,9.233 2.715,4.997 6.543,6.233 6.543,6.233 z"/><path style="fill:#000;fill-opacity:1;stroke:#fff;stroke-width:1.33640857;stroke-linecap:round;stroke-miterlimit:4;stroke-dasharray:none;stroke-opacity:1;paint-order:stroke markers fill;stroke-linejoin:round" id="path4733" d="m 31.11,72.937 c 0,0 -3.065,-2.38 -8.257,-3.63 -5.192,-1.251 -9.752,0.504 -9.752,0.504 0,0 3.47,2.478 9,3.81 5.528,1.331 9.009,-0.684 9.009,-0.684 z"/><path style="fill:#000;fill-opacity:1;stroke:#fff;stroke-width:1.33640857;stroke-linecap:round;stroke-miterlimit:4;stroke-dasharray:none;stroke-opacity:1;paint-order:stroke markers fill;stroke-linejoin:round" id="path4735" d="m 26.514,68.811 c 0,0 -1.908,-3.378 -6.214,-6.538 -4.306,-3.16 -9.189,-3.304 -9.189,-3.304 0,0 2.244,3.625 6.828,6.991 4.585,3.365 8.575,2.851 8.575,2.851 z"/><path style="fill:#000;fill-opacity:1;stroke:#fff;stroke-width:1.33640857;stroke-linecap:round;stroke-miterlimit:4;stroke-dasharray:none;stroke-opacity:1;paint-order:stroke markers fill;stroke-linejoin:round" id="path4737" d="m 21.951,61.863 c 0,0 1.292,-3.459 0.954,-8.528 -0.337,-5.07 -3.224,-8.714 -3.224,-8.714 0,0 -1.266,3.854 -0.907,9.254 0.36,5.397 3.177,7.988 3.177,7.988 z"/><path style="fill:#000;fill-opacity:1;stroke:#fff;stroke-width:1.33640857;stroke-linecap:round;stroke-miterlimit:4;stroke-dasharray:none;stroke-opacity:1;paint-order:stroke markers fill;stroke-linejoin:round" id="path4739" d="m 18.328,58.586 c 0,0 -1.328,-3.078 -4.735,-6.188 -3.408,-3.111 -7.59,-3.684 -7.59,-3.684 0,0 1.593,3.321 5.222,6.633 3.628,3.312 7.103,3.239 7.103,3.239 z"/><path style="fill:#000;fill-opacity:1;stroke:#fff;stroke-width:1.33640857;stroke-linecap:round;stroke-miterlimit:4;stroke-dasharray:none;stroke-opacity:1;paint-order:stroke markers fill;stroke-linejoin:round" id="path4741" d="m 16.273,51.764 c 0,0 -0.164,-3.349 -2.264,-7.457 -2.1,-4.108 -5.815,-6.112 -5.815,-6.112 0,0 0.328,3.668 2.564,8.043 2.236,4.376 5.515,5.526 5.515,5.526 z"/><path style="fill:#000;fill-opacity:1;stroke:#fff;stroke-width:1.33640857;stroke-linecap:round;stroke-miterlimit:4;stroke-dasharray:none;stroke-opacity:1;paint-order:stroke markers fill;stroke-linejoin:round" id="path4743" d="m 14.839,41.772 c 0,0 0.288,-3.34 -1.24,-7.693 -1.529,-4.354 -4.94,-6.839 -4.94,-6.839 0,0 -0.169,3.679 1.458,8.314 1.627,4.638 4.722,6.218 4.722,6.218 z"/><path style="fill:#000;fill-opacity:1;stroke:#fff;stroke-width:1.33640857;stroke-linecap:round;stroke-miterlimit:4;stroke-dasharray:none;stroke-opacity:1;paint-order:stroke markers fill;stroke-linejoin:round" id="path4745" d="m 16.223,35.188 c 0,0 1.533,-2.981 1.77,-7.589 0.237,-4.608 -1.978,-8.201 -1.978,-8.201 0,0 -1.552,3.339 -1.805,8.246 -0.253,4.908 2.013,7.544 2.013,7.544 z"/><path style="fill:#000;fill-opacity:1;stroke:#fff;stroke-width:1.33640857;stroke-linecap:round;stroke-miterlimit:4;stroke-dasharray:none;stroke-opacity:1;paint-order:stroke markers fill;stroke-linejoin:round" id="path4747" d="m 20.001,27.265 c 0,0 1.997,-2.692 2.98,-7.2 0.982,-4.508 -0.619,-8.414 -0.619,-8.414 0,0 -2.075,3.043 -3.121,7.844 -1.046,4.801 0.76,7.77 0.76,7.77 z"/><path style="fill:#000;fill-opacity:1;stroke:#fff;stroke-width:1.33640857;stroke-linecap:round;stroke-miterlimit:4;stroke-dasharray:none;stroke-opacity:1;paint-order:stroke markers fill;stroke-linejoin:round" id="path4749" d="m 16.448,47.467 c 0,0 2.497,-2.236 4.363,-6.456 1.866,-4.22 1.081,-8.368 1.081,-8.368 0,0 -2.643,2.566 -4.63,7.059 -1.988,4.494 -0.814,7.765 -0.814,7.765 z"/><path style="fill:#000;fill-opacity:1;stroke:#fff;stroke-width:1.33640857;stroke-linecap:round;stroke-miterlimit:4;stroke-dasharray:none;stroke-opacity:1;paint-order:stroke markers fill;stroke-linejoin:round" id="path4751" d="m 19.208,32.384 c 0,0 3.191,-1.027 6.614,-4.121 3.422,-3.094 4.393,-7.202 4.393,-7.202 0,0 -3.458,1.268 -7.102,4.563 -3.646,3.295 -3.905,6.76 -3.905,6.76 z"/><path style="fill:#000;fill-opacity:1;stroke:#fff;stroke-width:1.33640857;stroke-linecap:round;stroke-miterlimit:4;stroke-dasharray:none;stroke-opacity:1;paint-order:stroke markers fill;stroke-linejoin:round" id="path4753" d="m 23.923,23.153 c 0,0 3.02,-1.458 5.983,-4.992 2.964,-3.536 3.36,-7.739 3.36,-7.739 0,0 -3.25,1.731 -6.407,5.497 -3.155,3.765 -2.936,7.234 -2.936,7.234 z"/><path style="fill:#000;fill-opacity:1;stroke:#fff;stroke-width:1.33640857;stroke-linecap:round;stroke-miterlimit:4;stroke-dasharray:none;stroke-opacity:1;paint-order:stroke markers fill;stroke-linejoin:round" id="path4755" d="m 49.02,81.525 c 0,4.641 -7.635,9.691 -7.635,7.225 0,-2.466 7.635,-5.58 7.635,-7.225 z"/><path style="fill:#000;fill-opacity:1;stroke:#fff;stroke-width:1.33640857;stroke-linecap:round;stroke-miterlimit:4;stroke-dasharray:none;stroke-opacity:1;paint-order:stroke markers fill;stroke-linejoin:round" id="path4757" d="m 53.443,81.525 c 0,4.641 7.635,9.691 7.635,7.225 0,-2.466 -7.635,-5.58 -7.635,-7.225 z"/><path style="fill:#000;fill-opacity:1;stroke:#fff;stroke-width:1.33640857;stroke-linecap:round;stroke-miterlimit:4;stroke-dasharray:none;stroke-opacity:1;paint-order:stroke markers fill;stroke-linejoin:round" id="path4759" d="m 53.923,79.356 c 0,0 1.15,3.427 8.086,4.166 6.936,0.74 9.895,-0.739 9.895,-0.739 0,0 -4.624,-3.605 -9.063,-3.791 -4.439,-0.185 -8.918,0.364 -8.918,0.364 z"/><path style="fill:#000;fill-opacity:1;stroke:#fff;stroke-width:1.33640857;stroke-linecap:round;stroke-miterlimit:4;stroke-dasharray:none;stroke-opacity:1;paint-order:stroke markers fill;stroke-linejoin:round" id="path4761" d="m 53.923,79.356 c 0,0 -0.522,-3.585 5.222,-7.542 5.745,-3.956 9.052,-4.066 9.052,-4.066 0,0 -1.897,4.885 -6.521,7.745 -3.779,2.337 -7.753,3.863 -7.753,3.863 z"/><path style="fill:#000;fill-opacity:1;stroke:#fff;stroke-width:1.33640857;stroke-linecap:round;stroke-miterlimit:4;stroke-dasharray:none;stroke-opacity:1;paint-order:stroke markers fill;stroke-linejoin:round" id="path4763" d="m 62.147,76.818 c 0,0 3.538,-1.596 8.877,-1.596 5.342,0 9.365,2.775 9.365,2.775 0,0 -3.954,1.594 -9.642,1.594 -5.687,0.001 -8.6,-2.773 -8.6,-2.773 z"/><path style="fill:#000;fill-opacity:1;stroke:#fff;stroke-width:1.33640857;stroke-linecap:round;stroke-miterlimit:4;stroke-dasharray:none;stroke-opacity:1;paint-order:stroke markers fill;stroke-linejoin:round" id="path4765" d="m 68.686,73.42 c 0,0 0.287,-3.87 2.835,-8.562 2.549,-4.694 6.907,-6.904 6.907,-6.904 0,0 -0.485,4.235 -3.198,9.233 -2.716,4.997 -6.544,6.233 -6.544,6.233 z"/><path style="fill:#000;fill-opacity:1;stroke:#fff;stroke-width:1.33640857;stroke-linecap:round;stroke-miterlimit:4;stroke-dasharray:none;stroke-opacity:1;paint-order:stroke markers fill;stroke-linejoin:round" id="path4767" d="m 71.353,72.937 c 0,0 3.064,-2.38 8.257,-3.63 5.192,-1.251 9.752,0.504 9.752,0.504 0,0 -3.47,2.478 -8.999,3.81 -5.529,1.331 -9.01,-0.684 -9.01,-0.684 z"/><path style="fill:#000;fill-opacity:1;stroke:#fff;stroke-width:1.33640857;stroke-linecap:round;stroke-miterlimit:4;stroke-dasharray:none;stroke-opacity:1;paint-order:stroke markers fill;stroke-linejoin:round" id="path4769" d="m 75.948,68.811 c 0,0 1.909,-3.378 6.214,-6.538 4.307,-3.16 9.19,-3.304 9.19,-3.304 0,0 -2.243,3.625 -6.828,6.991 -4.585,3.365 -8.576,2.851 -8.576,2.851 z"/><path style="fill:#000;fill-opacity:1;stroke:#fff;stroke-width:1.33640857;stroke-linecap:round;stroke-miterlimit:4;stroke-dasharray:none;stroke-opacity:1;paint-order:stroke markers fill;stroke-linejoin:round" id="path4771" d="m 80.512,61.863 c 0,0 -1.292,-3.459 -0.955,-8.528 0.338,-5.07 3.225,-8.714 3.225,-8.714 0,0 1.266,3.854 0.906,9.254 -0.359,5.397 -3.176,7.988 -3.176,7.988 z"/><path style="fill:#000;fill-opacity:1;stroke:#fff;stroke-width:1.33640857;stroke-linecap:round;stroke-miterlimit:4;stroke-dasharray:none;stroke-opacity:1;paint-order:stroke markers fill;stroke-linejoin:round" id="path4773" d="m 84.135,58.586 c 0,0 1.328,-3.078 4.735,-6.188 3.408,-3.111 7.591,-3.684 7.591,-3.684 0,0 -1.595,3.321 -5.223,6.633 -3.629,3.312 -7.103,3.239 -7.103,3.239 z"/><path style="fill:#000;fill-opacity:1;stroke:#fff;stroke-width:1.33640857;stroke-linecap:round;stroke-miterlimit:4;stroke-dasharray:none;stroke-opacity:1;paint-order:stroke markers fill;stroke-linejoin:round" id="path4775" d="m 86.188,51.764 c 0,0 0.163,-3.349 2.264,-7.457 2.101,-4.108 5.815,-6.112 5.815,-6.112 0,0 -0.327,3.668 -2.563,8.043 -2.236,4.376 -5.516,5.526 -5.516,5.526 z"/><path style="fill:#000;fill-opacity:1;stroke:#fff;stroke-width:1.33640857;stroke-linecap:round;stroke-miterlimit:4;stroke-dasharray:none;stroke-opacity:1;paint-order:stroke markers fill;stroke-linejoin:round" id="path4777" d="m 87.624,41.772 c 0,0 -0.289,-3.34 1.239,-7.693 1.528,-4.354 4.94,-6.839 4.94,-6.839 0,0 0.17,3.679 -1.459,8.314 -1.626,4.638 -4.72,6.218 -4.72,6.218 z"/><path style="fill:#000;fill-opacity:1;stroke:#fff;stroke-width:1.33640857;stroke-linecap:round;stroke-miterlimit:4;stroke-dasharray:none;stroke-opacity:1;paint-order:stroke markers fill;stroke-linejoin:round" id="path4779" d="m 86.24,35.188 c 0,0 -1.533,-2.981 -1.771,-7.589 -0.236,-4.608 1.978,-8.201 1.978,-8.201 0,0 1.553,3.339 1.806,8.246 0.252,4.908 -2.013,7.544 -2.013,7.544 z"/><path style="fill:#000;fill-opacity:1;stroke:#fff;stroke-width:1.33640857;stroke-linecap:round;stroke-miterlimit:4;stroke-dasharray:none;stroke-opacity:1;paint-order:stroke markers fill;stroke-linejoin:round" id="path4781" d="m 82.461,27.265 c 0,0 -1.997,-2.692 -2.979,-7.2 -0.982,-4.508 0.618,-8.414 0.618,-8.414 0,0 2.074,3.043 3.121,7.844 1.048,4.801 -0.76,7.77 -0.76,7.77 z"/><path style="fill:#000;fill-opacity:1;stroke:#fff;stroke-width:1.33640857;stroke-linecap:round;stroke-miterlimit:4;stroke-dasharray:none;stroke-opacity:1;paint-order:stroke markers fill;stroke-linejoin:round" id="path4783" d="m 86.016,47.467 c 0,0 -2.499,-2.236 -4.365,-6.456 -1.866,-4.22 -1.081,-8.368 -1.081,-8.368 0,0 2.643,2.566 4.631,7.059 1.987,4.494 0.815,7.765 0.815,7.765 z"/><path style="fill:#000;fill-opacity:1;stroke:#fff;stroke-width:1.33640857;stroke-linecap:round;stroke-miterlimit:4;stroke-dasharray:none;stroke-opacity:1;paint-order:stroke markers fill;stroke-linejoin:round" id="path4785" d="m 83.255,32.384 c 0,0 -3.191,-1.027 -6.613,-4.121 -3.424,-3.094 -4.394,-7.202 -4.394,-7.202 0,0 3.457,1.268 7.103,4.563 3.644,3.295 3.904,6.76 3.904,6.76 z"/><path style="fill:#000;fill-opacity:1;stroke:#fff;stroke-width:1.33640857;stroke-linecap:round;stroke-miterlimit:4;stroke-dasharray:none;stroke-opacity:1;paint-order:stroke markers fill;stroke-linejoin:round" id="path4787" d="m 78.538,23.153 c 0,0 -3.019,-1.458 -5.982,-4.992 -2.964,-3.536 -3.361,-7.739 -3.361,-7.739 0,0 3.252,1.731 6.408,5.497 3.156,3.765 2.935,7.234 2.935,7.234 z"/></g></g><path style="fill:#000;fill-opacity:1;stroke:#fff;stroke-width:.79375;stroke-linecap:round;stroke-miterlimit:4;stroke-dasharray:none;stroke-opacity:1;paint-order:stroke markers fill;stroke-linejoin:round" id="path3824" d="m 102.99725,126.0313 c -13.174927,-1.49512 -18.805295,-17.61976 -9.428882,-27.003074 8.233812,-8.239879 22.337992,-5.063956 26.176822,5.894394 3.87601,11.06448 -5.1385,22.42614 -16.74794,21.10868 z m 3.53521,-1.2089 c 9.97488,-1.19956 15.85634,-11.98927 11.4376,-20.98264 -5.41457,-11.020154 -20.959923,-11.020154 -26.378979,0 -4.627944,9.41137 1.707565,20.1584 12.425329,21.0773 0.40533,0.0348 1.91099,-0.0219 2.51605,-0.0947 z m -11.274458,-6.9969 c -1.490323,-0.36282 -1.893077,-3.11811 -1.1127,-7.61217 0.30706,-1.76831 1.458021,-5.25592 1.996303,-6.04911 0.09207,-0.13568 0.167404,-0.29615 0.167404,-0.35661 0,-0.81758 3.074313,-1.6387 3.788301,-1.01181 0.11528,0.10122 0.25277,0.18404 0.30552,0.18404 0.0528,0 0.27828,0.0847 0.50117,0.18812 1.95983,0.90973 4.78503,0.94541 7.37501,0.0932 0.47012,-0.1547 0.88898,-0.28127 0.93077,-0.28127 0.0418,0 0.1815,-0.0838 0.31045,-0.18631 0.58154,-0.46216 1.89239,-0.26875 3.22181,0.47535 0.32947,0.18441 0.46012,0.29528 0.48508,0.41163 0.0188,0.0876 0.1299,0.35989 0.24691,0.60513 0.82128,1.72124 1.69292,4.56219 2.00317,6.52899 1.07146,6.79249 -0.63289,8.86159 -4.52869,5.49788 -2.01727,-1.74175 -3.05259,-2.08471 -6.29513,-2.08533 -3.0581,-5.3e-4 -3.81812,0.26555 -5.892016,2.06316 -1.583227,1.37231 -2.507904,1.77749 -3.503362,1.53515 z"/></g></g></svg>