<svg xmlns="http://www.w3.org/2000/svg" xmlns:osb="http://www.openswatchbook.org/uri/2009/osb" xmlns:svg="http://www.w3.org/2000/svg" xmlns:xlink="http://www.w3.org/1999/xlink" id="svg8" width="320" height="200" version="1.1" viewBox="0 0 320 200"><title id="title3715">Silica Urbe Flag</title><defs id="defs2"><linearGradient id="linearGradient1616"><stop id="stop1683" offset="0" style="stop-color:#d4af37;stop-opacity:1"/><stop id="stop1685" offset="1" style="stop-color:#d4af37;stop-opacity:0"/></linearGradient><linearGradient id="linearGradient955" osb:paint="solid"><stop style="stop-color:#000;stop-opacity:1" id="stop953" offset="0"/></linearGradient><radialGradient id="radialGradient1618" cx="51.232" cy="49.827" r="45.609" fx="51.232" fy="49.827" gradientTransform="matrix(10.313359,0,0,8.9988357,-477.1431,-398.55453)" gradientUnits="userSpaceOnUse" xlink:href="#linearGradient1616"/><radialGradient id="radialGradient1688" cx="51.232" cy="49.827" r="45.609" fx="51.232" fy="49.827" gradientTransform="matrix(4.3633425,-3.4409913e-6,2.4198766e-6,2.8875729,-172.31129,-94.051093)" gradientUnits="userSpaceOnUse" xlink:href="#linearGradient1616"/><radialGradient id="radialGradient876" cx="51.232" cy="49.827" r="45.609" fx="51.232" fy="49.827" gradientTransform="matrix(10.313359,0,0,8.9988357,-477.1431,-398.55453)" gradientUnits="userSpaceOnUse" xlink:href="#linearGradient1616"/><radialGradient id="radialGradient878" cx="51.232" cy="49.827" r="45.609" fx="51.232" fy="49.827" gradientTransform="matrix(10.313359,0,0,8.9988357,-477.1431,-398.55453)" gradientUnits="userSpaceOnUse" xlink:href="#linearGradient1616"/><radialGradient id="radialGradient880" cx="51.232" cy="49.827" r="45.609" fx="51.232" fy="49.827" gradientTransform="matrix(10.313359,0,0,8.9988357,-477.1431,-398.55453)" gradientUnits="userSpaceOnUse" xlink:href="#linearGradient1616"/><radialGradient id="radialGradient882" cx="51.232" cy="49.827" r="45.609" fx="51.232" fy="49.827" gradientTransform="matrix(10.313359,0,0,8.9988357,-477.1431,-398.55453)" gradientUnits="userSpaceOnUse" xlink:href="#linearGradient1616"/><radialGradient id="radialGradient884" cx="51.232" cy="49.827" r="45.609" fx="51.232" fy="49.827" gradientTransform="matrix(10.313359,0,0,8.9988357,-477.1431,-398.55453)" gradientUnits="userSpaceOnUse" xlink:href="#linearGradient1616"/><radialGradient id="radialGradient886" cx="51.232" cy="49.827" r="45.609" fx="51.232" fy="49.827" gradientTransform="matrix(10.313359,0,0,8.9988357,-477.1431,-398.55453)" gradientUnits="userSpaceOnUse" xlink:href="#linearGradient1616"/><radialGradient id="radialGradient888" cx="51.232" cy="49.827" r="45.609" fx="51.232" fy="49.827" gradientTransform="matrix(10.313359,0,0,8.9988357,-477.1431,-398.55453)" gradientUnits="userSpaceOnUse" xlink:href="#linearGradient1616"/><radialGradient id="radialGradient890" cx="51.232" cy="49.827" r="45.609" fx="51.232" fy="49.827" gradientTransform="matrix(10.313359,0,0,8.9988357,-477.1431,-398.55453)" gradientUnits="userSpaceOnUse" xlink:href="#linearGradient1616"/><radialGradient id="radialGradient892" cx="51.232" cy="49.827" r="45.609" fx="51.232" fy="49.827" gradientTransform="matrix(10.313359,0,0,8.9988357,-477.1431,-398.55453)" gradientUnits="userSpaceOnUse" xlink:href="#linearGradient1616"/><radialGradient id="radialGradient894" cx="51.232" cy="49.827" r="45.609" fx="51.232" fy="49.827" gradientTransform="matrix(10.313359,0,0,8.9988357,-477.1431,-398.55453)" gradientUnits="userSpaceOnUse" xlink:href="#linearGradient1616"/><radialGradient id="radialGradient896" cx="51.232" cy="49.827" r="45.609" fx="51.232" fy="49.827" gradientTransform="matrix(10.313359,0,0,8.9988357,-477.1431,-398.55453)" gradientUnits="userSpaceOnUse" xlink:href="#linearGradient1616"/><radialGradient id="radialGradient898" cx="51.232" cy="49.827" r="45.609" fx="51.232" fy="49.827" gradientTransform="matrix(10.313359,0,0,8.9988357,-477.1431,-398.55453)" gradientUnits="userSpaceOnUse" xlink:href="#linearGradient1616"/><radialGradient id="radialGradient900" cx="51.232" cy="49.827" r="45.609" fx="51.232" fy="49.827" gradientTransform="matrix(10.313359,0,0,8.9988357,-477.1431,-398.55453)" gradientUnits="userSpaceOnUse" xlink:href="#linearGradient1616"/><radialGradient id="radialGradient902" cx="51.232" cy="49.827" r="45.609" fx="51.232" fy="49.827" gradientTransform="matrix(10.313359,0,0,8.9988357,-477.1431,-398.55453)" gradientUnits="userSpaceOnUse" xlink:href="#linearGradient1616"/><radialGradient id="radialGradient904" cx="51.232" cy="49.827" r="45.609" fx="51.232" fy="49.827" gradientTransform="matrix(10.313359,0,0,8.9988357,-477.1431,-398.55453)" gradientUnits="userSpaceOnUse" xlink:href="#linearGradient1616"/><radialGradient id="radialGradient906" cx="51.232" cy="49.827" r="45.609" fx="51.232" fy="49.827" gradientTransform="matrix(10.313359,0,0,8.9988357,-477.1431,-398.55453)" gradientUnits="userSpaceOnUse" xlink:href="#linearGradient1616"/><radialGradient id="radialGradient908" cx="51.232" cy="49.827" r="45.609" fx="51.232" fy="49.827" gradientTransform="matrix(10.313359,0,0,8.9988357,-477.1431,-398.55453)" gradientUnits="userSpaceOnUse" xlink:href="#linearGradient1616"/><radialGradient id="radialGradient910" cx="51.232" cy="49.827" r="45.609" fx="51.232" fy="49.827" gradientTransform="matrix(10.313359,0,0,8.9988357,-477.1431,-398.55453)" gradientUnits="userSpaceOnUse" xlink:href="#linearGradient1616"/><radialGradient id="radialGradient912" cx="51.232" cy="49.827" r="45.609" fx="51.232" fy="49.827" gradientTransform="matrix(10.313359,0,0,8.9988357,-477.1431,-398.55453)" gradientUnits="userSpaceOnUse" xlink:href="#linearGradient1616"/><radialGradient id="radialGradient914" cx="51.232" cy="49.827" r="45.609" fx="51.232" fy="49.827" gradientTransform="matrix(10.313359,0,0,8.9988357,-477.1431,-398.55453)" gradientUnits="userSpaceOnUse" xlink:href="#linearGradient1616"/><radialGradient id="radialGradient916" cx="51.232" cy="49.827" r="45.609" fx="51.232" fy="49.827" gradientTransform="matrix(10.313359,0,0,8.9988357,-477.1431,-398.55453)" gradientUnits="userSpaceOnUse" xlink:href="#linearGradient1616"/><radialGradient id="radialGradient918" cx="51.232" cy="49.827" r="45.609" fx="51.232" fy="49.827" gradientTransform="matrix(10.313359,0,0,8.9988357,-477.1431,-398.55453)" gradientUnits="userSpaceOnUse" xlink:href="#linearGradient1616"/><radialGradient id="radialGradient920" cx="51.232" cy="49.827" r="45.609" fx="51.232" fy="49.827" gradientTransform="matrix(10.313359,0,0,8.9988357,-477.1431,-398.55453)" gradientUnits="userSpaceOnUse" xlink:href="#linearGradient1616"/><radialGradient id="radialGradient922" cx="51.232" cy="49.827" r="45.609" fx="51.232" fy="49.827" gradientTransform="matrix(10.313359,0,0,8.9988357,-477.1431,-398.55453)" gradientUnits="userSpaceOnUse" xlink:href="#linearGradient1616"/><radialGradient id="radialGradient924" cx="51.232" cy="49.827" r="45.609" fx="51.232" fy="49.827" gradientTransform="matrix(10.313359,0,0,8.9988357,-477.1431,-398.55453)" gradientUnits="userSpaceOnUse" xlink:href="#linearGradient1616"/><radialGradient id="radialGradient926" cx="51.232" cy="49.827" r="45.609" fx="51.232" fy="49.827" gradientTransform="matrix(10.313359,0,0,8.9988357,-477.1431,-398.55453)" gradientUnits="userSpaceOnUse" xlink:href="#linearGradient1616"/><radialGradient id="radialGradient928" cx="51.232" cy="49.827" r="45.609" fx="51.232" fy="49.827" gradientTransform="matrix(10.313359,0,0,8.9988357,-477.1431,-398.55453)" gradientUnits="userSpaceOnUse" xlink:href="#linearGradient1616"/><radialGradient id="radialGradient930" cx="51.232" cy="49.827" r="45.609" fx="51.232" fy="49.827" gradientTransform="matrix(10.313359,0,0,8.9988357,-477.1431,-398.55453)" gradientUnits="userSpaceOnUse" xlink:href="#linearGradient1616"/><radialGradient id="radialGradient932" cx="51.232" cy="49.827" r="45.609" fx="51.232" fy="49.827" gradientTransform="matrix(10.313359,0,0,8.9988357,-477.1431,-398.55453)" gradientUnits="userSpaceOnUse" xlink:href="#linearGradient1616"/><radialGradient id="radialGradient934" cx="51.232" cy="49.827" r="45.609" fx="51.232" fy="49.827" gradientTransform="matrix(10.313359,0,0,8.9988357,-477.1431,-398.55453)" gradientUnits="userSpaceOnUse" xlink:href="#linearGradient1616"/><radialGradient id="radialGradient936" cx="51.232" cy="49.827" r="45.609" fx="51.232" fy="49.827" gradientTransform="matrix(10.313359,0,0,8.9988357,-477.1431,-398.55453)" gradientUnits="userSpaceOnUse" xlink:href="#linearGradient1616"/></defs><metadata id="metadata5"/><g id="layer2" style="display:inline"><g id="g1503"><path id="path6489" d="M 0,0 V 160 L 280,0 Z" style="fill:#00f;fill-opacity:1;stroke:#000;stroke-width:0;stroke-linecap:butt;stroke-linejoin:miter;stroke-miterlimit:4;stroke-dasharray:none;stroke-opacity:1"/><path id="path6495" d="m 320,444.08333 v -160 l -280,160 h 280" transform="translate(0,-244.08333)" style="fill:red;fill-opacity:1;stroke:#000;stroke-width:0;stroke-linecap:butt;stroke-linejoin:miter;stroke-miterlimit:4;stroke-dasharray:none;stroke-opacity:1"/><path id="path6491" d="m 6.8219104e-7,160 v 40 H 40.000002 L 320,40 V -5e-7 H 280 L 6.8219104e-7,160" style="display:inline;fill:#666;fill-opacity:1;stroke:#fffff1;stroke-width:10;stroke-linecap:square;stroke-linejoin:round;stroke-miterlimit:4;stroke-dasharray:none;stroke-opacity:1;paint-order:stroke fill markers"/></g></g><g id="layer1" transform="translate(0,-244.08333)"><g id="g1790" transform="translate(-2.6037691e-4,-0.16774331)"><g id="g4829" transform="matrix(2.2109708,0,0,2.2791925,46.727546,230.68673)" style="fill:url(#radialGradient1618);fill-opacity:1;fill-rule:nonzero;stroke:#000;stroke-width:.44546953;stroke-linecap:round;stroke-miterlimit:4;stroke-dasharray:none;stroke-opacity:1"><path id="path4725" d="m 48.54,79.356 c 0,0 -1.15,3.427 -8.086,4.166 -6.936,0.74 -9.895,-0.739 -9.895,-0.739 0,0 4.624,-3.605 9.063,-3.791 4.439,-0.185 8.918,0.364 8.918,0.364 z" style="fill:url(#radialGradient876);fill-opacity:1;fill-rule:nonzero;stroke:#000;stroke-width:.44546953;stroke-linecap:round;stroke-miterlimit:4;stroke-dasharray:none;stroke-opacity:1"/><path id="path4727" d="m 48.54,79.356 c 0,0 0.522,-3.585 -5.222,-7.542 -5.745,-3.956 -9.052,-4.066 -9.052,-4.066 0,0 1.898,4.885 6.521,7.745 3.778,2.337 7.753,3.863 7.753,3.863 z" style="fill:url(#radialGradient878);fill-opacity:1;fill-rule:nonzero;stroke:#000;stroke-width:.44546953;stroke-linecap:round;stroke-miterlimit:4;stroke-dasharray:none;stroke-opacity:1"/><path id="path4729" d="m 40.315,76.818 c 0,0 -3.537,-1.596 -8.878,-1.596 -5.341,0 -9.363,2.775 -9.363,2.775 0,0 3.953,1.594 9.641,1.594 5.687,0.001 8.6,-2.773 8.6,-2.773 z" style="fill:url(#radialGradient880);fill-opacity:1;fill-rule:nonzero;stroke:#000;stroke-width:.44546953;stroke-linecap:round;stroke-miterlimit:4;stroke-dasharray:none;stroke-opacity:1"/><path id="path4731" d="m 33.777,73.42 c 0,0 -0.287,-3.87 -2.836,-8.562 -2.549,-4.694 -6.907,-6.904 -6.907,-6.904 0,0 0.485,4.235 3.2,9.233 2.715,4.997 6.543,6.233 6.543,6.233 z" style="fill:url(#radialGradient882);fill-opacity:1;fill-rule:nonzero;stroke:#000;stroke-width:.44546953;stroke-linecap:round;stroke-miterlimit:4;stroke-dasharray:none;stroke-opacity:1"/><path id="path4733" d="m 31.11,72.937 c 0,0 -3.065,-2.38 -8.257,-3.63 -5.192,-1.251 -9.752,0.504 -9.752,0.504 0,0 3.47,2.478 9,3.81 5.528,1.331 9.009,-0.684 9.009,-0.684 z" style="fill:url(#radialGradient884);fill-opacity:1;fill-rule:nonzero;stroke:#000;stroke-width:.44546953;stroke-linecap:round;stroke-miterlimit:4;stroke-dasharray:none;stroke-opacity:1"/><path id="path4735" d="m 26.514,68.811 c 0,0 -1.908,-3.378 -6.214,-6.538 -4.306,-3.16 -9.189,-3.304 -9.189,-3.304 0,0 2.244,3.625 6.828,6.991 4.585,3.365 8.575,2.851 8.575,2.851 z" style="fill:url(#radialGradient886);fill-opacity:1;fill-rule:nonzero;stroke:#000;stroke-width:.44546953;stroke-linecap:round;stroke-miterlimit:4;stroke-dasharray:none;stroke-opacity:1"/><path id="path4737" d="m 21.951,61.863 c 0,0 1.292,-3.459 0.954,-8.528 -0.337,-5.07 -3.224,-8.714 -3.224,-8.714 0,0 -1.266,3.854 -0.907,9.254 0.36,5.397 3.177,7.988 3.177,7.988 z" style="fill:url(#radialGradient888);fill-opacity:1;fill-rule:nonzero;stroke:#000;stroke-width:.44546953;stroke-linecap:round;stroke-miterlimit:4;stroke-dasharray:none;stroke-opacity:1"/><path id="path4739" d="m 18.328,58.586 c 0,0 -1.328,-3.078 -4.735,-6.188 -3.408,-3.111 -7.59,-3.684 -7.59,-3.684 0,0 1.593,3.321 5.222,6.633 3.628,3.312 7.103,3.239 7.103,3.239 z" style="fill:url(#radialGradient890);fill-opacity:1;fill-rule:nonzero;stroke:#000;stroke-width:.44546953;stroke-linecap:round;stroke-miterlimit:4;stroke-dasharray:none;stroke-opacity:1"/><path id="path4741" d="m 16.273,51.764 c 0,0 -0.164,-3.349 -2.264,-7.457 -2.1,-4.108 -5.815,-6.112 -5.815,-6.112 0,0 0.328,3.668 2.564,8.043 2.236,4.376 5.515,5.526 5.515,5.526 z" style="fill:url(#radialGradient892);fill-opacity:1;fill-rule:nonzero;stroke:#000;stroke-width:.44546953;stroke-linecap:round;stroke-miterlimit:4;stroke-dasharray:none;stroke-opacity:1"/><path id="path4743" d="m 14.839,41.772 c 0,0 0.288,-3.34 -1.24,-7.693 -1.529,-4.354 -4.94,-6.839 -4.94,-6.839 0,0 -0.169,3.679 1.458,8.314 1.627,4.638 4.722,6.218 4.722,6.218 z" style="fill:url(#radialGradient894);fill-opacity:1;fill-rule:nonzero;stroke:#000;stroke-width:.44546953;stroke-linecap:round;stroke-miterlimit:4;stroke-dasharray:none;stroke-opacity:1"/><path id="path4745" d="m 16.223,35.188 c 0,0 1.533,-2.981 1.77,-7.589 0.237,-4.608 -1.978,-8.201 -1.978,-8.201 0,0 -1.552,3.339 -1.805,8.246 -0.253,4.908 2.013,7.544 2.013,7.544 z" style="fill:url(#radialGradient896);fill-opacity:1;fill-rule:nonzero;stroke:#000;stroke-width:.44546953;stroke-linecap:round;stroke-miterlimit:4;stroke-dasharray:none;stroke-opacity:1"/><path id="path4747" d="m 20.001,27.265 c 0,0 1.997,-2.692 2.98,-7.2 0.982,-4.508 -0.619,-8.414 -0.619,-8.414 0,0 -2.075,3.043 -3.121,7.844 -1.046,4.801 0.76,7.77 0.76,7.77 z" style="fill:url(#radialGradient898);fill-opacity:1;fill-rule:nonzero;stroke:#000;stroke-width:.44546953;stroke-linecap:round;stroke-miterlimit:4;stroke-dasharray:none;stroke-opacity:1"/><path id="path4749" d="m 16.448,47.467 c 0,0 2.497,-2.236 4.363,-6.456 1.866,-4.22 1.081,-8.368 1.081,-8.368 0,0 -2.643,2.566 -4.63,7.059 -1.988,4.494 -0.814,7.765 -0.814,7.765 z" style="fill:url(#radialGradient900);fill-opacity:1;fill-rule:nonzero;stroke:#000;stroke-width:.44546953;stroke-linecap:round;stroke-miterlimit:4;stroke-dasharray:none;stroke-opacity:1"/><path id="path4751" d="m 19.208,32.384 c 0,0 3.191,-1.027 6.614,-4.121 3.422,-3.094 4.393,-7.202 4.393,-7.202 0,0 -3.458,1.268 -7.102,4.563 -3.646,3.295 -3.905,6.76 -3.905,6.76 z" style="fill:url(#radialGradient902);fill-opacity:1;fill-rule:nonzero;stroke:#000;stroke-width:.44546953;stroke-linecap:round;stroke-miterlimit:4;stroke-dasharray:none;stroke-opacity:1"/><path id="path4753" d="m 23.923,23.153 c 0,0 3.02,-1.458 5.983,-4.992 2.964,-3.536 3.36,-7.739 3.36,-7.739 0,0 -3.25,1.731 -6.407,5.497 -3.155,3.765 -2.936,7.234 -2.936,7.234 z" style="fill:url(#radialGradient904);fill-opacity:1;fill-rule:nonzero;stroke:#000;stroke-width:.44546953;stroke-linecap:round;stroke-miterlimit:4;stroke-dasharray:none;stroke-opacity:1"/><path id="path4755" d="m 49.02,81.525 c 0,4.641 -7.635,9.691 -7.635,7.225 0,-2.466 7.635,-5.58 7.635,-7.225 z" style="fill:url(#radialGradient906);fill-opacity:1;fill-rule:nonzero;stroke:#000;stroke-width:.44546953;stroke-linecap:round;stroke-miterlimit:4;stroke-dasharray:none;stroke-opacity:1"/><path id="path4757" d="m 53.443,81.525 c 0,4.641 7.635,9.691 7.635,7.225 0,-2.466 -7.635,-5.58 -7.635,-7.225 z" style="fill:url(#radialGradient908);fill-opacity:1;fill-rule:nonzero;stroke:#000;stroke-width:.44546953;stroke-linecap:round;stroke-miterlimit:4;stroke-dasharray:none;stroke-opacity:1"/><path id="path4759" d="m 53.923,79.356 c 0,0 1.15,3.427 8.086,4.166 6.936,0.74 9.895,-0.739 9.895,-0.739 0,0 -4.624,-3.605 -9.063,-3.791 -4.439,-0.185 -8.918,0.364 -8.918,0.364 z" style="fill:url(#radialGradient910);fill-opacity:1;fill-rule:nonzero;stroke:#000;stroke-width:.44546953;stroke-linecap:round;stroke-miterlimit:4;stroke-dasharray:none;stroke-opacity:1"/><path id="path4761" d="m 53.923,79.356 c 0,0 -0.522,-3.585 5.222,-7.542 5.745,-3.956 9.052,-4.066 9.052,-4.066 0,0 -1.897,4.885 -6.521,7.745 -3.779,2.337 -7.753,3.863 -7.753,3.863 z" style="fill:url(#radialGradient912);fill-opacity:1;fill-rule:nonzero;stroke:#000;stroke-width:.44546953;stroke-linecap:round;stroke-miterlimit:4;stroke-dasharray:none;stroke-opacity:1"/><path id="path4763" d="m 62.147,76.818 c 0,0 3.538,-1.596 8.877,-1.596 5.342,0 9.365,2.775 9.365,2.775 0,0 -3.954,1.594 -9.642,1.594 -5.687,0.001 -8.6,-2.773 -8.6,-2.773 z" style="fill:url(#radialGradient914);fill-opacity:1;fill-rule:nonzero;stroke:#000;stroke-width:.44546953;stroke-linecap:round;stroke-miterlimit:4;stroke-dasharray:none;stroke-opacity:1"/><path id="path4765" d="m 68.686,73.42 c 0,0 0.287,-3.87 2.835,-8.562 2.549,-4.694 6.907,-6.904 6.907,-6.904 0,0 -0.485,4.235 -3.198,9.233 -2.716,4.997 -6.544,6.233 -6.544,6.233 z" style="fill:url(#radialGradient916);fill-opacity:1;fill-rule:nonzero;stroke:#000;stroke-width:.44546953;stroke-linecap:round;stroke-miterlimit:4;stroke-dasharray:none;stroke-opacity:1"/><path id="path4767" d="m 71.353,72.937 c 0,0 3.064,-2.38 8.257,-3.63 5.192,-1.251 9.752,0.504 9.752,0.504 0,0 -3.47,2.478 -8.999,3.81 -5.529,1.331 -9.01,-0.684 -9.01,-0.684 z" style="fill:url(#radialGradient918);fill-opacity:1;fill-rule:nonzero;stroke:#000;stroke-width:.44546953;stroke-linecap:round;stroke-miterlimit:4;stroke-dasharray:none;stroke-opacity:1"/><path id="path4769" d="m 75.948,68.811 c 0,0 1.909,-3.378 6.214,-6.538 4.307,-3.16 9.19,-3.304 9.19,-3.304 0,0 -2.243,3.625 -6.828,6.991 -4.585,3.365 -8.576,2.851 -8.576,2.851 z" style="fill:url(#radialGradient920);fill-opacity:1;fill-rule:nonzero;stroke:#000;stroke-width:.44546953;stroke-linecap:round;stroke-miterlimit:4;stroke-dasharray:none;stroke-opacity:1"/><path id="path4771" d="m 80.512,61.863 c 0,0 -1.292,-3.459 -0.955,-8.528 0.338,-5.07 3.225,-8.714 3.225,-8.714 0,0 1.266,3.854 0.906,9.254 -0.359,5.397 -3.176,7.988 -3.176,7.988 z" style="fill:url(#radialGradient922);fill-opacity:1;fill-rule:nonzero;stroke:#000;stroke-width:.44546953;stroke-linecap:round;stroke-miterlimit:4;stroke-dasharray:none;stroke-opacity:1"/><path id="path4773" d="m 84.135,58.586 c 0,0 1.328,-3.078 4.735,-6.188 3.408,-3.111 7.591,-3.684 7.591,-3.684 0,0 -1.595,3.321 -5.223,6.633 -3.629,3.312 -7.103,3.239 -7.103,3.239 z" style="fill:url(#radialGradient1688);fill-opacity:1;fill-rule:nonzero;stroke:#000;stroke-width:.44546953;stroke-linecap:round;stroke-miterlimit:4;stroke-dasharray:none;stroke-opacity:1"/><path id="path4775" d="m 86.188,51.764 c 0,0 0.163,-3.349 2.264,-7.457 2.101,-4.108 5.815,-6.112 5.815,-6.112 0,0 -0.327,3.668 -2.563,8.043 -2.236,4.376 -5.516,5.526 -5.516,5.526 z" style="fill:url(#radialGradient924);fill-opacity:1;fill-rule:nonzero;stroke:#000;stroke-width:.44546953;stroke-linecap:round;stroke-miterlimit:4;stroke-dasharray:none;stroke-opacity:1"/><path id="path4777" d="m 87.624,41.772 c 0,0 -0.289,-3.34 1.239,-7.693 1.528,-4.354 4.94,-6.839 4.94,-6.839 0,0 0.17,3.679 -1.459,8.314 -1.626,4.638 -4.72,6.218 -4.72,6.218 z" style="fill:url(#radialGradient926);fill-opacity:1;fill-rule:nonzero;stroke:#000;stroke-width:.44546953;stroke-linecap:round;stroke-miterlimit:4;stroke-dasharray:none;stroke-opacity:1"/><path id="path4779" d="m 86.24,35.188 c 0,0 -1.533,-2.981 -1.771,-7.589 -0.236,-4.608 1.978,-8.201 1.978,-8.201 0,0 1.553,3.339 1.806,8.246 0.252,4.908 -2.013,7.544 -2.013,7.544 z" style="fill:url(#radialGradient928);fill-opacity:1;fill-rule:nonzero;stroke:#000;stroke-width:.44546953;stroke-linecap:round;stroke-miterlimit:4;stroke-dasharray:none;stroke-opacity:1"/><path id="path4781" d="m 82.461,27.265 c 0,0 -1.997,-2.692 -2.979,-7.2 -0.982,-4.508 0.618,-8.414 0.618,-8.414 0,0 2.074,3.043 3.121,7.844 1.048,4.801 -0.76,7.77 -0.76,7.77 z" style="fill:url(#radialGradient930);fill-opacity:1;fill-rule:nonzero;stroke:#000;stroke-width:.44546953;stroke-linecap:round;stroke-miterlimit:4;stroke-dasharray:none;stroke-opacity:1"/><path id="path4783" d="m 86.016,47.467 c 0,0 -2.499,-2.236 -4.365,-6.456 -1.866,-4.22 -1.081,-8.368 -1.081,-8.368 0,0 2.643,2.566 4.631,7.059 1.987,4.494 0.815,7.765 0.815,7.765 z" style="fill:url(#radialGradient932);fill-opacity:1;fill-rule:nonzero;stroke:#000;stroke-width:.44546953;stroke-linecap:round;stroke-miterlimit:4;stroke-dasharray:none;stroke-opacity:1"/><path id="path4785" d="m 83.255,32.384 c 0,0 -3.191,-1.027 -6.613,-4.121 -3.424,-3.094 -4.394,-7.202 -4.394,-7.202 0,0 3.457,1.268 7.103,4.563 3.644,3.295 3.904,6.76 3.904,6.76 z" style="fill:url(#radialGradient934);fill-opacity:1;fill-rule:nonzero;stroke:#000;stroke-width:.44546953;stroke-linecap:round;stroke-miterlimit:4;stroke-dasharray:none;stroke-opacity:1"/><path id="path4787" d="m 78.538,23.153 c 0,0 -3.019,-1.458 -5.982,-4.992 -2.964,-3.536 -3.361,-7.739 -3.361,-7.739 0,0 3.252,1.731 6.408,5.497 3.156,3.765 2.935,7.234 2.935,7.234 z" style="fill:url(#radialGradient936);fill-opacity:1;fill-rule:nonzero;stroke:#000;stroke-width:.44546953;stroke-linecap:round;stroke-miterlimit:4;stroke-dasharray:none;stroke-opacity:1"/></g><g id="g1459"><path id="path932" d="m 124.03551,363.32513 c -5.63272,-1.37128 -7.15494,-11.78498 -4.20548,-28.77042 1.16054,-6.68337 5.51063,-19.86487 7.54508,-22.86277 0.34799,-0.51281 0.63271,-1.1193 0.63271,-1.3478 0,-3.09009 11.61945,-6.19351 14.31797,-3.82416 0.43573,0.38257 0.95537,0.69559 1.15475,0.69559 0.19936,0 1.05175,0.31995 1.89419,0.71099 7.40722,3.43833 18.08514,3.5732 27.87403,0.35208 1.77686,-0.58468 3.35993,-1.06307 3.5179,-1.06307 0.15797,0 0.68598,-0.31688 1.17334,-0.70418 2.19794,-1.74672 7.15232,-1.01573 12.1769,1.79662 1.24526,0.69699 1.73904,1.116 1.83337,1.55576 0.071,0.33104 0.49097,1.36023 0.93323,2.2871 3.10405,6.50548 6.39842,17.24295 7.57102,24.67651 4.04963,25.6724 -2.39203,33.49264 -17.11631,20.77938 -7.62431,-6.58299 -11.53734,-7.87922 -23.79259,-7.88154 -11.55819,-0.002 -14.43071,1.00364 -22.26906,7.79777 -5.98385,5.18666 -9.47869,6.71808 -13.24105,5.80214 z" style="fill:#fffffa;fill-opacity:1;stroke:#000;stroke-width:1.5;stroke-linecap:round;stroke-linejoin:round;stroke-miterlimit:4;stroke-dasharray:none;stroke-opacity:1;paint-order:normal"/><circle style="fill:none;fill-opacity:1;stroke:#000;stroke-width:5;stroke-linecap:round;stroke-linejoin:round;stroke-miterlimit:4;stroke-dasharray:none;stroke-opacity:1;paint-order:stroke markers fill" id="path936" cx="160" cy="334.083" r="57.542"/><circle id="circle2416" cx="160" cy="334.083" r="57.542" style="fill:none;fill-opacity:1;stroke:#fff;stroke-width:2;stroke-linecap:round;stroke-linejoin:round;stroke-miterlimit:4;stroke-dasharray:none;stroke-opacity:1;paint-order:stroke markers fill"/></g></g><text style="font-style:normal;font-variant:normal;font-weight:400;font-stretch:normal;font-size:39.34678268px;line-height:1.25;font-family:'Trebuchet MS';-inkscape-font-specification:'Trebuchet MS, Normal';font-variant-ligatures:normal;font-variant-caps:normal;font-variant-numeric:normal;font-feature-settings:normal;text-align:start;letter-spacing:0;word-spacing:0;writing-mode:lr-tb;text-anchor:start;fill:#000;fill-opacity:1;stroke:none;stroke-width:.98368996" id="text1050" x="138.463" y="343.603" xml:space="preserve"><tspan id="tspan1048" x="138.463" y="343.603" style="font-style:normal;font-variant:normal;font-weight:400;font-stretch:normal;font-size:39.34678268px;font-family:'Trebuchet MS';-inkscape-font-specification:'Trebuchet MS, Normal';font-variant-ligatures:normal;font-variant-caps:normal;font-variant-numeric:normal;font-feature-settings:normal;text-align:start;writing-mode:lr-tb;text-anchor:start;stroke-width:.98368996">SU</tspan></text></g></svg>